HIERARCHY
ROOT reference
{
  OFFSET 0 0 0
  CHANNELS 6 Xposition Yposition Zposition Zrotation Xrotation Yrotation
  JOINT Hips
  {
    OFFSET 355.919 86.4685 225.794
    CHANNELS 3 Zrotation Xrotation Yrotation
    JOINT RightUpLeg
    {
      OFFSET -9.27022 -1.53975 0.0125073
      CHANNELS 3 Zrotation Xrotation Yrotation
      JOINT RightLeg
      {
        OFFSET 0.013591 -41.8786 0.0152335
        CHANNELS 3 Zrotation Xrotation Yrotation
        JOINT RightFoot
        {
          OFFSET -0.635566 -43.1371 -0.638083
          CHANNELS 3 Zrotation Xrotation Yrotation
          End Site
          {
            OFFSET 0 -7.69 17.5
          }
        }
      }
    }
    JOINT LeftUpLeg
    {
      OFFSET 9.3307 -1.62449 -0.0651281
      CHANNELS 3 Zrotation Xrotation Yrotation
      JOINT LeftLeg
      {
        OFFSET 0.136006 -41.8606 -0.0682192
        CHANNELS 3 Zrotation Xrotation Yrotation
        JOINT LeftFoot
        {
          OFFSET 0.555276 -40.3296 1.11688
          CHANNELS 3 Zrotation Xrotation Yrotation
          End Site
          {
            OFFSET 0 -7.69 17.5
          }
        }
      }
    }
    JOINT Spine
    {
      OFFSET 0.0523142 14.2998 0.0636653
      CHANNELS 3 Zrotation Xrotation Yrotation
      JOINT Spine1
      {
        OFFSET 0.0411785 9.71676 0.0113233
        CHANNELS 3 Zrotation Xrotation Yrotation
        JOINT Spine2
        {
          OFFSET 0.0674534 10.1151 -0.00111457
          CHANNELS 3 Zrotation Xrotation Yrotation
          JOINT Spine3
          {
            OFFSET 0.048863 9.72171 0.0174249
            CHANNELS 3 Zrotation Xrotation Yrotation
            JOINT Neck
            {
              OFFSET 0.180558 10.3768 0.0617075
              CHANNELS 3 Zrotation Xrotation Yrotation
              JOINT Head
              {
                OFFSET 0.135918 9.47305 0.0380206
                CHANNELS 3 Zrotation Xrotation Yrotation
                End Site
                {
                  OFFSET 0 15.95 0
                }
              }
            }
            JOINT RightShoulder
            {
              OFFSET -3.15694 6.89408 0.00348883
              CHANNELS 3 Zrotation Xrotation Yrotation
              JOINT RightArm
              {
                OFFSET -12.7409 -0.0031918 0.045926
                CHANNELS 3 Zrotation Xrotation Yrotation
                JOINT RightForeArm
                {
                  OFFSET -26.5086 -0.0806184 0.00400063
                  CHANNELS 3 Zrotation Xrotation Yrotation
                  JOINT RightHand
                  {
                    OFFSET -26.0338 -0.025514 0.155859
                    CHANNELS 3 Zrotation Xrotation Yrotation
                    JOINT RightHandThumb1
                    {
                      OFFSET -2.48905 0.190105 3.12053
                      CHANNELS 3 Zrotation Xrotation Yrotation
                      JOINT RightHandThumb2
                      {
                        OFFSET -3.68274 0 0
                        CHANNELS 3 Zrotation Xrotation Yrotation
                        JOINT RightHandThumb3
                        {
                          OFFSET -2.55832 0 0
                          CHANNELS 3 Zrotation Xrotation Yrotation
                          End Site
                          {
                            OFFSET -2.194 0 0
                          }
                        }
                      }
                    }
                    JOINT RightInHandIndex
                    {
                      OFFSET -3.22368 0.508421 1.97842
                      CHANNELS 3 Zrotation Xrotation Yrotation
                      JOINT RightHandIndex1
                      {
                        OFFSET -5.21684 -0.091368 0.999158
                        CHANNELS 3 Zrotation Xrotation Yrotation
                        JOINT RightHandIndex2
                        {
                          OFFSET -3.61937 0 0
                          CHANNELS 3 Zrotation Xrotation Yrotation
                          JOINT RightHandIndex3
                          {
                            OFFSET -2.0521 0 0
                            CHANNELS 3 Zrotation Xrotation Yrotation
                            End Site
                            {
                              OFFSET -1.805 0 0
                            }
                          }
                        }
                      }
                    }
                    JOINT RightInHandMiddle
                    {
                      OFFSET -3.38211 0.517263 0.756737
                      CHANNELS 3 Zrotation Xrotation Yrotation
                      JOINT RightHandMiddle1
                      {
                        OFFSET -5.17411 -0.084 0.313895
                        CHANNELS 3 Zrotation Xrotation Yrotation
                        JOINT RightHandMiddle2
                        {
                          OFFSET -3.94947 0 0
                          CHANNELS 3 Zrotation Xrotation Yrotation
                          JOINT RightHandMiddle3
                          {
                            OFFSET -2.47579 0 0
                            CHANNELS 3 Zrotation Xrotation Yrotation
                            End Site
                            {
                              OFFSET -1.975 0 0
                            }
                          }
                        }
                      }
                    }
                    JOINT RightInHandRing
                    {
                      OFFSET -3.36516 0.537895 -0.128947
                      CHANNELS 3 Zrotation Xrotation Yrotation
                      JOINT RightHandRing1
                      {
                        OFFSET -4.63474 -0.022105 -0.478947
                        CHANNELS 3 Zrotation Xrotation Yrotation
                        JOINT RightHandRing2
                        {
                          OFFSET -3.44238 0 0
                          CHANNELS 3 Zrotation Xrotation Yrotation
                          JOINT RightHandRing3
                          {
                            OFFSET -2.3881 0 0
                            CHANNELS 3 Zrotation Xrotation Yrotation
                            End Site
                            {
                              OFFSET -1.857 0 0
                            }
                          }
                        }
                      }
                    }
                    JOINT RightInHandPinky
                    {
                      OFFSET -3.16105 0.469368 -1.20179
                      CHANNELS 3 Zrotation Xrotation Yrotation
                      JOINT RightHandPinky1
                      {
                        OFFSET -4.14105 -0.022105 -1.09053
                        CHANNELS 3 Zrotation Xrotation Yrotation
                        JOINT RightHandPinky2
                        {
                          OFFSET -2.75653 0 0
                          CHANNELS 3 Zrotation Xrotation Yrotation
                          JOINT RightHandPinky3
                          {
                            OFFSET -1.74189 0 0
                            CHANNELS 3 Zrotation Xrotation Yrotation
                            End Site
                            {
                              OFFSET -1.645 0 0
                            }
                          }
                        }
                      }
                    }
                  }
                }
              }
            }
            JOINT LeftShoulder
            {
              OFFSET 3.22505 6.94333 0.022328
              CHANNELS 3 Zrotation Xrotation Yrotation
              JOINT LeftArm
              {
                OFFSET 12.8536 -0.0213048 -0.00476292
                CHANNELS 3 Zrotation Xrotation Yrotation
                JOINT LeftForeArm
                {
                  OFFSET 26.4992 -0.0497473 -0.102272
                  CHANNELS 3 Zrotation Xrotation Yrotation
                  JOINT LeftHand
                  {
                    OFFSET 25.9818 -0.0182282 -0.0189166
                    CHANNELS 3 Zrotation Xrotation Yrotation
                    JOINT LeftHandThumb1
                    {
                      OFFSET 2.48905 0.190105 3.12053
                      CHANNELS 3 Zrotation Xrotation Yrotation
                      JOINT LeftHandThumb2
                      {
                        OFFSET 3.68274 0 0
                        CHANNELS 3 Zrotation Xrotation Yrotation
                        JOINT LeftHandThumb3
                        {
                          OFFSET 2.55832 0 0
                          CHANNELS 3 Zrotation Xrotation Yrotation
                          End Site
                          {
                            OFFSET 2.194 0 0
                          }
                        }
                      }
                    }
                    JOINT LeftInHandIndex
                    {
                      OFFSET 3.22368 0.508421 1.97842
                      CHANNELS 3 Zrotation Xrotation Yrotation
                      JOINT LeftHandIndex1
                      {
                        OFFSET 5.21684 -0.091368 0.999158
                        CHANNELS 3 Zrotation Xrotation Yrotation
                        JOINT LeftHandIndex2
                        {
                          OFFSET 3.61937 0 0
                          CHANNELS 3 Zrotation Xrotation Yrotation
                          JOINT LeftHandIndex3
                          {
                            OFFSET 2.0521 0 0
                            CHANNELS 3 Zrotation Xrotation Yrotation
                            End Site
                            {
                              OFFSET 1.805 0 0
                            }
                          }
                        }
                      }
                    }
                    JOINT LeftInHandMiddle
                    {
                      OFFSET 3.38211 0.517263 0.756737
                      CHANNELS 3 Zrotation Xrotation Yrotation
                      JOINT LeftHandMiddle1
                      {
                        OFFSET 5.17411 -0.084 0.313895
                        CHANNELS 3 Zrotation Xrotation Yrotation
                        JOINT LeftHandMiddle2
                        {
                          OFFSET 3.94947 0 0
                          CHANNELS 3 Zrotation Xrotation Yrotation
                          JOINT LeftHandMiddle3
                          {
                            OFFSET 2.47579 0 0
                            CHANNELS 3 Zrotation Xrotation Yrotation
                            End Site
                            {
                              OFFSET 1.975 0 0
                            }
                          }
                        }
                      }
                    }
                    JOINT LeftInHandRing
                    {
                      OFFSET 3.36516 0.537895 -0.128947
                      CHANNELS 3 Zrotation Xrotation Yrotation
                      JOINT LeftHandRing1
                      {
                        OFFSET 4.63474 -0.022105 -0.478947
                        CHANNELS 3 Zrotation Xrotation Yrotation
                        JOINT LeftHandRing2
                        {
                          OFFSET 3.44238 0 0
                          CHANNELS 3 Zrotation Xrotation Yrotation
                          JOINT LeftHandRing3
                          {
                            OFFSET 2.3881 0 0
                            CHANNELS 3 Zrotation Xrotation Yrotation
                            End Site
                            {
                              OFFSET 1.857 0 0
                            }
                          }
                        }
                      }
                    }
                    JOINT LeftInHandPinky
                    {
                      OFFSET 3.16105 0.469368 -1.20179
                      CHANNELS 3 Zrotation Xrotation Yrotation
                      JOINT LeftHandPinky1
                      {
                        OFFSET 4.14105 -0.022105 -1.09053
                        CHANNELS 3 Zrotation Xrotation Yrotation
                        JOINT LeftHandPinky2
                        {
                          OFFSET 2.75653 0 0
                          CHANNELS 3 Zrotation Xrotation Yrotation
                          JOINT LeftHandPinky3
                          {
                            OFFSET 1.74189 0 0
                            CHANNELS 3 Zrotation Xrotation Yrotation
                            End Site
                            {
                              OFFSET 1.645 0 0
                            }
                          }
                        }
                      }
                    }
                  }
                }
              }
            }
          }
        }
      }
    }
  }
}
MOTION
Frames: 2
Frame Time: 0.00833333
3.000000000000000000e+02 0.000000000000000000e+00 0.000000000000000000e+00 0.000000000000000000e+00 0.000000000000000000e+00 0.000000000000000000e+00 -2.791794112041987366e-02 -2.743297717565245653e-01 -9.556573193085637907e-02 -1.185884885270215294e-01 -6.587902038673114705e-03 2.097198808700438677e-01 -1.237966510903538465e-02 -6.035054603340084256e-03 -4.447976891662727000e-02 7.031214308356939502e-02 9.935263204601665205e-03 5.012592541616414654e-02 -2.438557168886696658e-01 -9.583020308899110537e-03 2.077991651981868915e-01 7.813832123108230276e-02 1.055523571127516425e-03 -6.355840617944963356e-02 2.096604035002930244e-01 1.858298474297875313e-01 -6.668197187888093291e-02 -1.813314564762490144e-01 -7.029603088935815203e-02 3.247721385211710388e-01 -4.378075748526284033e-02 2.201665423191098009e-02 7.504712138101980734e-02 -7.286781241105608209e-02 -3.449397309185844862e-02 1.406317539220801327e-01 3.556073567474957522e-03 1.135602740561283096e-02 -1.074366463137878605e-02 3.993484185100188051e-03 3.676971447853044639e-02 -3.450343277424787747e-01 6.268487855823489871e-03 -8.019048286922055013e-02 8.193833369659388188e-02 1.065384226235992077e-01 -1.769022075770736446e-01 -8.176127150854041181e-01 4.898760084427947539e-03 2.569242834061906677e-01 1.545269243549783900e-01 1.165328893906900781e-01 2.702827722580890962e-02 -1.008707807323053346e-01 -6.027990108516905615e-02 2.836291807907613260e-01 1.083398400460643118e-01 0.000000000000000000e+00 0.000000000000000000e+00 0.000000000000000000e+00 3.313358808000032187e-15 -2.109320077730724177e-15 0.000000000000000000e+00 -1.661924550362793150e-16 -2.281927648037819742e-15 0.000000000000000000e+00 -6.197540727077808537e-16 2.574097419311666232e-15 4.794780652069624770e-15 0.000000000000000000e+00 0.000000000000000000e+00 0.000000000000000000e+00 0.000000000000000000e+00 1.344343699480107919e-15 5.169998760637373798e-15 0.000000000000000000e+00 4.004251660560446262e-15 7.996171856672195188e-16 -6.197540727077808537e-16 2.574097419311666232e-15 4.794780652069624770e-15 0.000000000000000000e+00 -1.948341532457642254e-15 -4.238825382765459816e-16 0.000000000000000000e+00 4.086205127115660143e-15 1.159248836402771854e-15 0.000000000000000000e+00 4.421137878331848972e-15 2.783845554753834748e-16 -6.197540727077808537e-16 2.574097419311666232e-15 4.794780652069624770e-15 0.000000000000000000e+00 0.000000000000000000e+00 0.000000000000000000e+00 0.000000000000000000e+00 5.687073728661685299e-16 -4.508145769601038795e-15 0.000000000000000000e+00 3.312868675523899460e-15 -2.377197229501037351e-15 -6.197540727077808537e-16 2.574097419311666232e-15 4.794780652069624770e-15 0.000000000000000000e+00 0.000000000000000000e+00 0.000000000000000000e+00 0.000000000000000000e+00 3.416484569838159483e-15 3.198210222174857879e-15 0.000000000000000000e+00 -1.333516045608036577e-15 -6.532389187627679485e-16 4.502664712300286087e-02 -2.720267421666869648e-02 -1.086454180175061013e-01 1.451927060510328771e-01 -1.984726003596275559e-02 -3.234538315284741783e-01 2.174870312865939403e-01 -1.175461047251380869e-01 7.329171299508988602e-01 -1.470832781524371302e-01 3.964048095915968517e-01 -3.502453222455663151e-01 0.000000000000000000e+00 0.000000000000000000e+00 0.000000000000000000e+00 4.036872253394638721e-16 5.253852479893909562e-15 0.000000000000000000e+00 2.960460720821459653e-15 -2.857421473707930443e-17 0.000000000000000000e+00 -2.754228842134869123e-16 -9.229756062921185300e-16 1.426943514519306649e-15 0.000000000000000000e+00 0.000000000000000000e+00 0.000000000000000000e+00 0.000000000000000000e+00 -2.620995299058494755e-15 2.188034850086003679e-15 0.000000000000000000e+00 -3.453969601754730432e-15 -5.802098621085603067e-18 -2.754228842134869123e-16 -9.229756062921185300e-16 1.426943514519306649e-15 0.000000000000000000e+00 -1.607652751838546737e-15 2.737983460937272600e-15 0.000000000000000000e+00 -4.361957345577150427e-15 3.951964539787585395e-15 0.000000000000000000e+00 -1.274781126685426541e-15 8.154864662315017142e-16 -2.754228842134869123e-16 -9.229756062921185300e-16 1.426943514519306649e-15 0.000000000000000000e+00 0.000000000000000000e+00 0.000000000000000000e+00 0.000000000000000000e+00 -1.303698591089341101e-15 2.229250815536534216e-15 0.000000000000000000e+00 1.029075561154450367e-15 1.588685801076977907e-15 -2.754228842134869123e-16 -9.229756062921185300e-16 1.426943514519306649e-15 0.000000000000000000e+00 0.000000000000000000e+00 0.000000000000000000e+00 0.000000000000000000e+00 -3.394246415001272963e-15 3.424021077543717661e-15 0.000000000000000000e+00 4.456859832090489720e-15 2.703532971195735866e-15
3.000000000000000000e+02 0.000000000000000000e+00 0.000000000000000000e+00 0.000000000000000000e+00 0.000000000000000000e+00 0.000000000000000000e+00 -9.767129417185953580e-03 -1.187433850836153854e-01 -2.537363460502510548e-02 -8.065873407562462738e-02 -8.592431164766689208e-03 7.480087442913203877e-02 3.951251212484239647e-03 -7.995729603139939065e-03 -2.845354111389419155e-02 1.190963726654034049e-01 1.721247814739044341e-02 3.707782105519883548e-02 -1.311598723952642764e-01 -1.008809997787968732e-01 2.412116205538701319e-01 2.096901720199540187e-01 6.123070948203318542e-02 -2.552799701220748174e-01 1.757418887508920557e-01 1.816746863898036635e-01 -2.221864396899765962e-02 -1.156791710756809588e-01 -2.380670134281652472e-02 3.153986326903546189e-02 -2.961674864940773075e-02 -6.117644241360903345e-02 2.332214749035073365e-02 -4.808555651680507248e-02 -4.963017025840515614e-03 1.555881783233583650e-02 4.832414522333171661e-03 -6.764333675888602876e-03 2.965130673350696230e-03 2.014970438026975411e-02 4.259059812936565742e-02 8.570002541387861106e-02 8.056174708369494286e-02 -6.058806637600289754e-04 -7.309833031165338668e-02 1.145992921696310785e-01 -1.772513921011148116e-02 -4.747970550229746456e-01 2.163334434626723313e-01 6.177235747463803994e-01 4.019088951899137396e-01 -1.640409618482132903e-01 -2.423626673065705506e-01 -9.185351932461571778e-02 8.397336993349932555e-02 -1.150398640110065762e-01 -1.928263822985191653e-02 0.000000000000000000e+00 0.000000000000000000e+00 0.000000000000000000e+00 1.563385996053312600e-15 -2.305594992337307741e-16 0.000000000000000000e+00 -1.201512992081228581e-15 -2.179264630922922876e-15 0.000000000000000000e+00 -6.513268732129682915e-16 8.644404623994193634e-16 3.278057123396693840e-15 0.000000000000000000e+00 0.000000000000000000e+00 0.000000000000000000e+00 0.000000000000000000e+00 2.775573481014706675e-15 1.707696877945322918e-15 0.000000000000000000e+00 2.658237999857108838e-15 -1.355861464335780143e-15 -6.513268732129682915e-16 8.644404623994193634e-16 3.278057123396693840e-15 0.000000000000000000e+00 -1.241925351933576271e-15 -9.313107512032309304e-17 0.000000000000000000e+00 -4.233609248259326856e-16 -1.292406168144541890e-15 0.000000000000000000e+00 1.475039632219015900e-15 -2.290347637868301273e-15 -6.513268732129682915e-16 8.644404623994193634e-16 3.278057123396693840e-15 0.000000000000000000e+00 0.000000000000000000e+00 0.000000000000000000e+00 0.000000000000000000e+00 -2.646541446625177261e-15 -3.593309746840642893e-15 0.000000000000000000e+00 7.830759111153402037e-16 -6.959642004127232749e-15 -6.513268732129682915e-16 8.644404623994193634e-16 3.278057123396693840e-15 0.000000000000000000e+00 0.000000000000000000e+00 0.000000000000000000e+00 0.000000000000000000e+00 1.540319357173516768e-15 1.816437164268819526e-15 0.000000000000000000e+00 -3.197692434354298077e-15 -3.325020592135709982e-15 1.728011293504182200e-01 9.728897959950812135e-02 2.070053074642688173e-01 1.535343222677953284e-02 -8.731228190476733944e-03 -1.436474311199661125e-01 3.129518531182933772e-01 -1.367645975086796140e-01 7.497560233270341712e-01 -1.024326025164600112e-01 5.331307424274670526e-01 -4.249765002451654228e-01 0.000000000000000000e+00 0.000000000000000000e+00 0.000000000000000000e+00 6.438452874824658509e-16 8.555833543296340672e-16 0.000000000000000000e+00 9.384881543469617418e-16 -4.001689966287633749e-15 0.000000000000000000e+00 -2.904918113103290077e-16 -1.700768482993680102e-15 1.970875863298367217e-15 0.000000000000000000e+00 0.000000000000000000e+00 0.000000000000000000e+00 0.000000000000000000e+00 -2.016584989529402278e-15 1.323043274961333293e-15 0.000000000000000000e+00 1.363464739450362551e-15 1.543095646732839241e-15 -2.904918113103290077e-16 -1.700768482993680102e-15 1.970875863298367217e-15 0.000000000000000000e+00 8.036945581841588044e-18 7.820836249898465889e-16 0.000000000000000000e+00 -1.682753885179786794e-15 1.919517690578340062e-15 0.000000000000000000e+00 -1.040331041656956672e-15 6.941532607286106217e-16 -2.904918113103290077e-16 -1.700768482993680102e-15 1.970875863298367217e-15 0.000000000000000000e+00 0.000000000000000000e+00 0.000000000000000000e+00 0.000000000000000000e+00 2.637931499746372520e-15 3.310468693974564609e-15 0.000000000000000000e+00 1.250347743079355183e-16 1.576153364149829386e-15 -2.904918113103290077e-16 -1.700768482993680102e-15 1.970875863298367217e-15 0.000000000000000000e+00 0.000000000000000000e+00 0.000000000000000000e+00 0.000000000000000000e+00 -5.912206996185358596e-15 9.041833450418672356e-16 0.000000000000000000e+00 1.359203786635722401e-15 4.714800756608234040e-15
